<svg width="190" height="49" viewBox="0 0 190 49" fill="none" xmlns="http://www.w3.org/2000/svg">
<path fill-rule="evenodd" clip-rule="evenodd" d="M49.4804 24.7256C49.4804 35.6468 42.4034 44.908 32.5889 48.199C31.3366 48.4319 30.8998 47.6747 30.8998 47.0049C30.8998 46.1894 30.9289 43.5392 30.9289 40.2192C30.9289 37.9185 30.1425 36.404 29.2397 35.6468C34.744 35.0353 40.5395 32.9384 40.5395 23.4442C40.5395 20.7357 39.5785 18.5224 38.0058 16.8041C38.2679 16.1925 39.1125 13.6588 37.7728 10.2514C37.7728 10.2514 35.7051 9.58154 30.9871 12.7851C29.0067 12.2318 26.8807 11.9696 24.7839 11.9405C22.687 11.9405 20.561 12.2318 18.5806 12.7851C13.8627 9.58154 11.7658 10.2514 11.7658 10.2514C10.4261 13.6588 11.2707 16.1634 11.5328 16.8041C9.96015 18.5224 8.96996 20.7357 8.96996 23.4442C8.96996 32.9093 14.7364 35.0353 20.2406 35.676C19.5417 36.2876 18.901 37.3942 18.668 38.996C17.2701 39.6367 13.6879 40.7143 11.4746 36.9283C11.4746 36.9283 10.164 34.5402 7.68853 34.3654C7.68853 34.3654 5.27131 34.3363 7.51379 35.8798C7.51379 35.8798 9.1447 36.637 10.2514 39.4911C10.2514 39.4911 11.7075 43.9178 18.5806 42.4034C18.5806 44.4712 18.6097 46.4224 18.6097 47.0049C18.6097 47.6456 18.1438 48.4319 16.9206 48.199C7.07695 44.9372 0 35.676 0 24.7256C0 11.0668 11.0668 0 24.7256 0C38.3844 0 49.4804 11.0668 49.4804 24.7256ZM59.7026 21.2891H55.3341C55.305 26.3565 59.1202 30.492 66.6048 30.492C73.1867 30.492 77.6425 27.3758 77.6425 21.7842C77.6425 18.0273 75.6039 15.1441 70.42 14.0083L65.2652 12.9016C63.5469 12.523 60.4598 11.8532 60.4598 8.85346C60.4598 6.34887 62.5276 4.68884 66.1971 4.68884C69.7793 4.68884 72.1674 6.31974 72.3712 9.58154H76.7397C76.6232 4.33936 72.4004 1.28142 66.2554 1.28142C60.1395 1.28142 56.0331 4.36849 56.0331 9.43593C56.0331 15.2606 61.5083 16.4255 64.042 16.9788L68.9347 18.0855C70.2161 18.4059 73.1867 18.9883 73.1867 22.3084C73.1867 25.3663 70.6821 27.1137 66.8378 27.1137C62.6441 27.0846 59.8191 25.1625 59.7026 21.2891ZM79.9724 24.2305C79.9724 28.0166 82.4188 30.5212 86.5251 30.5212C89.8452 30.5212 92.4954 29.0359 93.3691 26.8225H93.6312L93.6603 27.8127C93.7768 29.298 94.4467 30.1425 96.6018 30.1425H100.3V27.2302H97.4172V16.4546C97.4172 14.2413 96.4562 9.20294 89.3792 9.20294C84.3409 9.20294 81.0791 11.6202 80.7878 15.9013H84.7777C84.8942 13.7462 86.3504 12.3774 89.1753 12.3774C91.6799 12.3774 93.3982 13.4258 93.3982 16.3673V17.8525H87.428C82.8556 17.8525 79.9724 20.1533 79.9724 24.2305ZM84.0788 23.3568C84.0788 21.7551 85.4476 20.6193 87.9522 20.6193H93.4273V21.5803C93.4273 24.9877 91.2431 27.2885 87.6901 27.2885C85.5349 27.2885 84.1079 26.3565 84.1079 24.4344V23.3568H84.0788ZM107.494 12.9307H111.746V9.58154H107.494V2.91232H103.504V9.58154H99.8053V12.9307H103.504V26.7934C103.504 28.7738 104.349 30.1134 106.911 30.1134H111.746V26.8516H107.494V12.9307ZM113.056 19.8038C113.056 26.3274 116.697 30.492 122.813 30.492C127.647 30.492 131.317 27.8418 132.132 23.8519H128.142C127.531 25.8906 125.579 27.2885 122.842 27.2885C119.434 27.2885 117.192 25.1042 117.192 21.8715V20.7357H131.899C131.986 20.0659 132.045 19.1631 132.045 18.5224C132.045 12.6977 128.346 9.20294 122.754 9.20294C116.842 9.20294 113.056 13.1055 113.056 19.8038ZM117.192 17.8525V17.3866C117.192 14.416 119.464 12.3774 122.725 12.3774C125.9 12.3774 127.997 14.3286 127.997 17.1827V17.8525H117.192ZM135.307 30.1134H139.296V1.39792H135.307V30.1134ZM143.141 30.1134H147.131V1.39792H143.141V30.1134ZM151.004 6.23237H154.994V1.39792H151.004V6.23237ZM151.004 30.1134H154.994V9.58154H151.004V30.1134ZM165.187 12.9307H169.439V9.58154H165.187V2.91232H161.197V9.58154H157.498V12.9307H161.197V26.7934C161.197 28.7738 162.042 30.1134 164.605 30.1134H169.439V26.8516H165.187V12.9307ZM170.924 19.8038C170.924 26.3274 174.565 30.492 180.681 30.492C185.515 30.492 189.185 27.8418 190 23.8519H186.01C185.399 25.8906 183.447 27.2885 180.71 27.2885C177.302 27.2885 175.06 25.1042 175.06 21.8715V20.7357H189.767C189.854 20.0659 189.913 19.1631 189.913 18.5224C189.913 12.6977 186.214 9.20294 180.622 9.20294C174.71 9.20294 170.924 13.1055 170.924 19.8038ZM175.06 17.8525V17.3866C175.06 14.416 177.331 12.3774 180.593 12.3774C183.768 12.3774 185.864 14.3286 185.864 17.1827V17.8525H175.06ZM59.4114 47.5874V36.3458H57.7223V47.5874H59.4114ZM67.7698 47.5874H69.4589V41.7918L69.3424 38.5592H69.4298L75.0215 47.6165H77.0601V36.3749H75.4001V42.0539L75.5165 45.4322H75.4292L69.8375 36.3749H67.7989V47.5874H67.7698ZM85.4767 47.5874H90.1073C93.5147 47.5874 94.9126 45.607 94.9126 41.9666C94.9126 38.4135 93.6021 36.3458 90.1073 36.3458H85.4767V47.5874ZM87.1658 46.1021V37.8311H90.0782C92.0585 37.8311 93.1361 38.6757 93.1361 41.0346V42.9276C93.1361 45.141 92.2042 46.1021 90.0782 46.1021H87.1658ZM103.766 47.5874V36.3458H102.077V47.5874H103.766ZM119.201 47.5874H121.036L116.784 36.3458H114.833L110.668 47.5874H112.416L113.319 45.1119H118.299L119.201 47.5874ZM113.814 43.7722L114.454 42.0248L115.794 38.0932H115.881L117.192 42.0248L117.833 43.7722H113.814ZM142.442 46.1603C141.947 46.1603 141.393 46.1894 140.811 46.2477L144.102 42.782C144.801 42.0539 145.674 41.122 145.674 39.6076C145.674 37.6272 144.247 36.3167 142.005 36.3167C139.733 36.3167 138.248 37.7146 138.306 40.0153H139.879V39.7241C139.879 38.53 140.694 37.7437 141.947 37.7437C143.024 37.7437 143.956 38.3553 143.956 39.3746V39.9862C143.956 40.4813 143.665 41.0055 142.879 41.8501L138.481 46.4224V47.5582H145.907V46.1312H142.442V46.1603ZM153.276 42.0248C153.276 45.84 154.615 47.733 157.236 47.733C159.857 47.733 161.139 45.84 161.139 42.0248C161.139 38.2097 159.828 36.3167 157.236 36.3167C154.615 36.3167 153.276 38.2097 153.276 42.0248ZM155.052 43.714V40.3939C155.052 38.6465 155.897 37.7728 157.207 37.7728C158.46 37.7728 159.362 38.5592 159.362 40.3939V43.714C159.362 45.5487 158.46 46.3351 157.207 46.3351C155.897 46.3351 155.052 45.4322 155.052 43.714ZM172.555 46.1603C172.06 46.1603 171.507 46.1894 170.924 46.2477L174.215 42.782C174.914 42.0539 175.788 41.122 175.788 39.6076C175.788 37.6272 174.361 36.3167 172.118 36.3167C169.847 36.3167 168.361 37.7146 168.42 40.0153H169.992V39.7241C169.992 38.53 170.808 37.7437 172.06 37.7437C173.138 37.7437 174.07 38.3553 174.07 39.3746V39.9862C174.07 40.4813 173.778 41.0055 172.992 41.8501L168.624 46.4516V47.5874H175.992V46.1603H172.555ZM183.418 39.6367H186.214V47.5874H187.816V36.4623H186.33C186.272 37.6272 185.311 38.3844 183.855 38.3844H183.418V39.6367Z" fill="white"/>
</svg>
