<?xml version="1.0" encoding="utf-8"?>
<!-- Generator: Adobe Illustrator 24.2.0, SVG Export Plug-In . SVG Version: 6.00 Build 0)  -->
<svg version="1.1" id="Layer_1" xmlns="http://www.w3.org/2000/svg" xmlns:xlink="http://www.w3.org/1999/xlink" x="0px" y="0px"
	 viewBox="0 0 24 24" enable-background="new 0 0 24 24" xml:space="preserve">
<path fill-rule="evenodd" clip-rule="evenodd" fill="#FFFFFF" d="M1.8,1C0.8,1,0,1.8,0,2.8v9.5c0,1,0.8,1.8,1.8,1.8H3v1.5
	C3,16.3,3.7,17,4.5,17c0.4,0,0.8-0.2,1-0.4L8.1,14h6.2c1,0,1.8-0.8,1.8-1.8V2.8c0-1-0.8-1.8-1.8-1.8H1.8z M1.5,2.8
	c0-0.1,0.1-0.2,0.2-0.2h12.5c0.1,0,0.2,0.1,0.2,0.2v9.5c0,0.1-0.1,0.2-0.2,0.2H7.8c-0.2,0-0.4,0.1-0.5,0.2l-2.7,2.7v-2.2
	c0-0.4-0.3-0.8-0.8-0.8h-2c-0.1,0-0.2-0.1-0.2-0.2V2.8z"/>
<path fill="#FFFFFF" d="M22.5,8.8c0-0.1-0.1-0.2-0.2-0.2h-3.5c-0.4,0-0.8-0.3-0.8-0.8C18,7.3,18.3,7,18.8,7h3.5c1,0,1.8,0.8,1.8,1.8
	v9.5c0,1-0.8,1.8-1.8,1.8H21v1.5c0,0.8-0.7,1.5-1.5,1.5c-0.4,0-0.8-0.2-1-0.4L15.9,20h-5.2c-1,0-1.8-0.8-1.8-1.8v-1.5
	C9,16.4,9.3,16,9.8,16c0.4,0,0.8,0.3,0.8,0.8v1.5c0,0.1,0.1,0.2,0.2,0.2h5.5c0.2,0,0.4,0.1,0.5,0.2l2.7,2.7v-2.2
	c0-0.4,0.3-0.8,0.8-0.8h2c0.1,0,0.2-0.1,0.2-0.2V8.8z"/>
</svg>
