<svg width="24" height="24" viewBox="0 0 24 24" fill="none" xmlns="http://www.w3.org/2000/svg">
<path d="M20.283 10.3559H11.956V13.8069H16.748C16.302 15.9999 14.435 17.2599 11.956 17.2599C9.03297 17.2599 6.67697 14.9039 6.67697 11.9799C6.67697 9.05687 9.03297 6.70088 11.956 6.70088C13.215 6.70088 14.353 7.14788 15.246 7.87888L17.846 5.27988C16.262 3.89888 14.231 3.04688 11.956 3.04688C7.00197 3.04688 3.02197 7.02588 3.02197 11.9809C3.02197 16.9359 7.00097 20.9149 11.956 20.9149C16.423 20.9149 20.485 17.6659 20.485 11.9809C20.485 11.4529 20.404 10.8839 20.283 10.3559Z" fill="white"/>
</svg>
