<?xml version="1.0" encoding="utf-8"?>
<!-- Generator: Adobe Illustrator 24.2.0, SVG Export Plug-In . SVG Version: 6.00 Build 0)  -->
<svg version="1.1" id="Layer_1" xmlns="http://www.w3.org/2000/svg" xmlns:xlink="http://www.w3.org/1999/xlink" x="0px" y="0px"
	 viewBox="0 0 46 21" style="enable-background:new 0 0 46 21;" xml:space="preserve">
<style type="text/css">
	.st0{fill:none;stroke:#B5BFD2;}
	.st1{fill:#FFFFFF;}
</style>
<path class="st0" d="M10.5,0.5h25c5.5,0,10,4.5,10,10l0,0c0,5.5-4.5,10-10,10h-25c-5.5,0-10-4.5-10-10l0,0C0.5,5,5,0.5,10.5,0.5z"/>
<g>
	<path class="st1" d="M8.5,14.3h1.4v-3.6L9.8,8.6h0.1l3.5,5.7h1.6V6.7h-1.4v3.5l0.1,2.2h-0.1l-3.5-5.8H8.5V14.3z"/>
	<path class="st1" d="M17.5,14.3h5.2v-1.2h-3.9v-2.2h3.4V9.8h-3.4V7.9h3.9V6.7h-5.2V14.3z"/>
	<path class="st1" d="M24.2,14.3h1.6l0.7-1.2l0.9-1.7h0.1l0.9,1.6l0.8,1.3h1.7l-2.3-3.8l2.3-3.8h-1.6l-0.8,1.5l-0.8,1.5h-0.1
		l-0.8-1.5l-0.9-1.5h-1.6l2.3,3.8L24.2,14.3z"/>
	<path class="st1" d="M37.5,6.7h-5.8v1.2h2.2v6.4h1.4V7.9h2.2V6.7z"/>
</g>
</svg>
