<svg width="38" height="37" viewBox="0 0 38 37" fill="none" xmlns="http://www.w3.org/2000/svg">
<path fill-rule="evenodd" clip-rule="evenodd" d="M18.9995 0.416992C19.4754 0.416992 19.9099 0.687115 20.1205 1.11379L25.2177 11.4418L36.6153 13.098C37.0862 13.1664 37.4774 13.4962 37.6244 13.9487C37.7714 14.4013 37.6488 14.898 37.3081 15.2301L29.0607 23.2694L31.0076 34.621C31.0881 35.09 30.8953 35.5639 30.5103 35.8436C30.1254 36.1232 29.6151 36.1601 29.1939 35.9387L18.9995 30.5792L8.80516 35.9387C8.38401 36.1601 7.87369 36.1232 7.48875 35.8436C7.10382 35.5639 6.91104 35.09 6.99148 34.621L8.93843 23.2694L0.690998 15.2301C0.350282 14.898 0.227661 14.4013 0.374692 13.9487C0.521723 13.4962 0.912907 13.1664 1.38377 13.098L12.7814 11.4418L17.8786 1.11379C18.0892 0.687115 18.5237 0.416992 18.9995 0.416992ZM18.9995 4.49143L14.7324 13.1375C14.5504 13.5065 14.1984 13.7622 13.7913 13.8213L4.24971 15.2078L11.154 21.9379C11.4487 22.225 11.5831 22.6388 11.5135 23.0443L9.88365 32.5473L18.4179 28.0606C18.782 27.8691 19.2171 27.8691 19.5812 28.0606L28.1154 32.5473L26.4856 23.0443C26.416 22.6388 26.5504 22.225 26.8451 21.9379L33.7494 15.2078L24.2078 13.8213C23.8007 13.7622 23.4487 13.5065 23.2667 13.1375L18.9995 4.49143Z" fill="white"/>
</svg>
