<svg width="38" height="37" viewBox="0 0 38 37" fill="none" xmlns="http://www.w3.org/2000/svg">
<path d="M20.121 1.11379C19.9104 0.687115 19.4758 0.416992 19 0.416992C18.5242 0.416992 18.0897 0.687115 17.8791 1.11379L12.7819 11.4418L1.38425 13.098C0.913396 13.1664 0.522212 13.4962 0.375181 13.9487C0.228149 14.4013 0.350771 14.898 0.691487 15.2301L8.93892 23.2694L6.99196 34.621C6.91153 35.09 7.10431 35.5639 7.48924 35.8436C7.87417 36.1232 8.3845 36.1601 8.80565 35.9387L19 30.5792L29.1944 35.9387C29.6156 36.1601 30.1259 36.1232 30.5108 35.8436C30.8958 35.5639 31.0885 35.09 31.0081 34.621L29.0612 23.2694L37.3086 15.2301C37.6493 14.898 37.7719 14.4013 37.6249 13.9487C37.4779 13.4962 37.0867 13.1664 36.6158 13.098L25.2182 11.4418L20.121 1.11379Z" fill="#FFD33D"/>
</svg>
